<svg width="2084" height="16" viewBox="0 0 2084 16" fill="none" xmlns="http://www.w3.org/2000/svg">
<g clip-path="url(#clip0_3151_944)">
<rect width="2084" height="16" fill="white"/>
<path d="M7 0C12 1 13.9287 16 13.9287 16H0.0722656C0.0722656 16 2 -1 7 0Z" fill="#1C89BA"/>
<path d="M19.9277 0.0424805C24.9277 1.04248 26.8564 16.0425 26.8564 16.0425H13C13 16.0425 14.9277 -0.95752 19.9277 0.0424805Z" fill="#1C89BA"/>
<path d="M32.8555 0.0849609C37.8555 1.08496 39.7841 16.085 39.7841 16.085H25.9277C25.9277 16.085 27.8555 -0.915039 32.8555 0.0849609Z" fill="#1C89BA"/>
<path d="M45.7832 0.127441C50.7832 1.12744 52.7119 16.1275 52.7119 16.1275H38.8555C38.8555 16.1275 40.7832 -0.872559 45.7832 0.127441Z" fill="#1C89BA"/>
<path d="M58.7109 0.169922C63.7109 1.16992 65.6396 16.17 65.6396 16.17H51.7832C51.7832 16.17 53.7109 -0.830078 58.7109 0.169922Z" fill="#1C89BA"/>
<path d="M71.6387 0.212402C76.6387 1.2124 78.5673 16.2124 78.5673 16.2124H64.7109C64.7109 16.2124 66.6387 -0.787598 71.6387 0.212402Z" fill="#1C89BA"/>
<path d="M84.5664 0.254883C89.5664 1.25488 91.4951 16.2549 91.4951 16.2549H77.6387C77.6387 16.2549 79.5664 -0.745117 84.5664 0.254883Z" fill="#1C89BA"/>
<path d="M97.4941 0.297363C102.494 1.29736 104.423 16.2974 104.423 16.2974H90.5664C90.5664 16.2974 92.4941 -0.702637 97.4941 0.297363Z" fill="#1C89BA"/>
<path d="M110.422 0.339844C115.422 1.33984 117.351 16.3399 117.351 16.3399H103.494C103.494 16.3399 105.422 -0.660156 110.422 0.339844Z" fill="#1C89BA"/>
<path d="M122.928 0.0424805C127.928 1.04248 129.856 16.0425 129.856 16.0425H116C116 16.0425 117.928 -0.95752 122.928 0.0424805Z" fill="#1C89BA"/>
<path d="M135.928 0.0424805C140.928 1.04248 142.856 16.0425 142.856 16.0425H129C129 16.0425 130.928 -0.95752 135.928 0.0424805Z" fill="#1C89BA"/>
<path d="M148.928 0.0424805C153.928 1.04248 155.856 16.0425 155.856 16.0425H142C142 16.0425 143.928 -0.95752 148.928 0.0424805Z" fill="#1C89BA"/>
<path d="M161.928 0.0424805C166.928 1.04248 168.856 16.0425 168.856 16.0425H155C155 16.0425 156.928 -0.95752 161.928 0.0424805Z" fill="#1C89BA"/>
<path d="M174.928 0.0424805C179.928 1.04248 181.856 16.0425 181.856 16.0425H168C168 16.0425 169.928 -0.95752 174.928 0.0424805Z" fill="#1C89BA"/>
<path d="M187.928 0.0424805C192.928 1.04248 194.856 16.0425 194.856 16.0425H181C181 16.0425 182.928 -0.95752 187.928 0.0424805Z" fill="#1C89BA"/>
<path d="M201.928 0.0424805C206.928 1.04248 208.856 16.0425 208.856 16.0425H195C195 16.0425 196.928 -0.95752 201.928 0.0424805Z" fill="#1C89BA"/>
<path d="M214.928 0.0424805C219.928 1.04248 221.856 16.0425 221.856 16.0425H208C208 16.0425 209.928 -0.95752 214.928 0.0424805Z" fill="#1C89BA"/>
<path d="M227.928 0.0424805C232.928 1.04248 234.856 16.0425 234.856 16.0425H221C221 16.0425 222.928 -0.95752 227.928 0.0424805Z" fill="#1C89BA"/>
<path d="M240.928 0.0424805C245.928 1.04248 247.856 16.0425 247.856 16.0425H234C234 16.0425 235.928 -0.95752 240.928 0.0424805Z" fill="#1C89BA"/>
<path d="M253.928 0.0424805C258.928 1.04248 260.856 16.0425 260.856 16.0425H247C247 16.0425 248.928 -0.95752 253.928 0.0424805Z" fill="#1C89BA"/>
<path d="M266.928 0.0424805C271.928 1.04248 273.856 16.0425 273.856 16.0425H260C260 16.0425 261.928 -0.95752 266.928 0.0424805Z" fill="#1C89BA"/>
<path d="M279.928 0.0424805C284.928 1.04248 286.856 16.0425 286.856 16.0425H273C273 16.0425 274.928 -0.95752 279.928 0.0424805Z" fill="#1C89BA"/>
<path d="M292.928 0.0424805C297.928 1.04248 299.856 16.0425 299.856 16.0425H286C286 16.0425 287.928 -0.95752 292.928 0.0424805Z" fill="#1C89BA"/>
<path d="M305.928 0.0424805C310.928 1.04248 312.856 16.0425 312.856 16.0425H299C299 16.0425 300.928 -0.95752 305.928 0.0424805Z" fill="#1C89BA"/>
<path d="M318.928 0.0424805C323.928 1.04248 325.856 16.0425 325.856 16.0425H312C312 16.0425 313.928 -0.95752 318.928 0.0424805Z" fill="#1C89BA"/>
<path d="M331.928 0.0424805C336.928 1.04248 338.856 16.0425 338.856 16.0425H325C325 16.0425 326.928 -0.95752 331.928 0.0424805Z" fill="#1C89BA"/>
<path d="M344.928 0.0424805C349.928 1.04248 351.856 16.0425 351.856 16.0425H338C338 16.0425 339.928 -0.95752 344.928 0.0424805Z" fill="#1C89BA"/>
<path d="M357.928 0.0424805C362.928 1.04248 364.856 16.0425 364.856 16.0425H351C351 16.0425 352.928 -0.95752 357.928 0.0424805Z" fill="#1C89BA"/>
<path d="M370.928 0.0424805C375.928 1.04248 377.856 16.0425 377.856 16.0425H364C364 16.0425 365.928 -0.95752 370.928 0.0424805Z" fill="#1C89BA"/>
<path d="M383.928 0.0424805C388.928 1.04248 390.856 16.0425 390.856 16.0425H377C377 16.0425 378.928 -0.95752 383.928 0.0424805Z" fill="#1C89BA"/>
<path d="M396.928 0.0424805C401.928 1.04248 403.856 16.0425 403.856 16.0425H390C390 16.0425 391.928 -0.95752 396.928 0.0424805Z" fill="#1C89BA"/>
<path d="M409.928 0.0424805C414.928 1.04248 416.856 16.0425 416.856 16.0425H403C403 16.0425 404.928 -0.95752 409.928 0.0424805Z" fill="#1C89BA"/>
<path d="M422.928 0.0424805C427.928 1.04248 429.856 16.0425 429.856 16.0425H416C416 16.0425 417.928 -0.95752 422.928 0.0424805Z" fill="#1C89BA"/>
<path d="M435.928 0.0424805C440.928 1.04248 442.856 16.0425 442.856 16.0425H429C429 16.0425 430.928 -0.95752 435.928 0.0424805Z" fill="#1C89BA"/>
<path d="M448.928 0.0424805C453.928 1.04248 455.856 16.0425 455.856 16.0425H442C442 16.0425 443.928 -0.95752 448.928 0.0424805Z" fill="#1C89BA"/>
<path d="M461.928 0.0424805C466.928 1.04248 468.856 16.0425 468.856 16.0425H455C455 16.0425 456.928 -0.95752 461.928 0.0424805Z" fill="#1C89BA"/>
<path d="M474.928 0.0424805C479.928 1.04248 481.856 16.0425 481.856 16.0425H468C468 16.0425 469.928 -0.95752 474.928 0.0424805Z" fill="#1C89BA"/>
<path d="M487.928 0.0424805C492.928 1.04248 494.856 16.0425 494.856 16.0425H481C481 16.0425 482.928 -0.95752 487.928 0.0424805Z" fill="#1C89BA"/>
<path d="M500.928 0.0424805C505.928 1.04248 507.856 16.0425 507.856 16.0425H494C494 16.0425 495.928 -0.95752 500.928 0.0424805Z" fill="#1C89BA"/>
<path d="M513.928 0.0424805C518.928 1.04248 520.856 16.0425 520.856 16.0425H507C507 16.0425 508.928 -0.95752 513.928 0.0424805Z" fill="#1C89BA"/>
<path d="M526.928 0.0424805C531.928 1.04248 533.856 16.0425 533.856 16.0425H520C520 16.0425 521.928 -0.95752 526.928 0.0424805Z" fill="#1C89BA"/>
<path d="M539.928 0.0424805C544.928 1.04248 546.856 16.0425 546.856 16.0425H533C533 16.0425 534.928 -0.95752 539.928 0.0424805Z" fill="#1C89BA"/>
<path d="M552.928 0.0424805C557.928 1.04248 559.856 16.0425 559.856 16.0425H546C546 16.0425 547.928 -0.95752 552.928 0.0424805Z" fill="#1C89BA"/>
<path d="M565.928 0.0424805C570.928 1.04248 572.856 16.0425 572.856 16.0425H559C559 16.0425 560.928 -0.95752 565.928 0.0424805Z" fill="#1C89BA"/>
<path d="M578.928 0.0424805C583.928 1.04248 585.856 16.0425 585.856 16.0425H572C572 16.0425 573.928 -0.95752 578.928 0.0424805Z" fill="#1C89BA"/>
<path d="M591.928 0.0424805C596.928 1.04248 598.856 16.0425 598.856 16.0425H585C585 16.0425 586.928 -0.95752 591.928 0.0424805Z" fill="#1C89BA"/>
<path d="M604.928 0.0424805C609.928 1.04248 611.856 16.0425 611.856 16.0425H598C598 16.0425 599.928 -0.95752 604.928 0.0424805Z" fill="#1C89BA"/>
<path d="M617.928 0.0424805C622.928 1.04248 624.856 16.0425 624.856 16.0425H611C611 16.0425 612.928 -0.95752 617.928 0.0424805Z" fill="#1C89BA"/>
<path d="M630.928 0.0424805C635.928 1.04248 637.856 16.0425 637.856 16.0425H624C624 16.0425 625.928 -0.95752 630.928 0.0424805Z" fill="#1C89BA"/>
<path d="M643.928 0.0424805C648.928 1.04248 650.856 16.0425 650.856 16.0425H637C637 16.0425 638.928 -0.95752 643.928 0.0424805Z" fill="#1C89BA"/>
<path d="M656.928 0.0424805C661.928 1.04248 663.856 16.0425 663.856 16.0425H650C650 16.0425 651.928 -0.95752 656.928 0.0424805Z" fill="#1C89BA"/>
<path d="M669.928 0.0424805C674.928 1.04248 676.856 16.0425 676.856 16.0425H663C663 16.0425 664.928 -0.95752 669.928 0.0424805Z" fill="#1C89BA"/>
<path d="M682.928 0.0424805C687.928 1.04248 689.856 16.0425 689.856 16.0425H676C676 16.0425 677.928 -0.95752 682.928 0.0424805Z" fill="#1C89BA"/>
<path d="M695.928 0.0424805C700.928 1.04248 702.856 16.0425 702.856 16.0425H689C689 16.0425 690.928 -0.95752 695.928 0.0424805Z" fill="#1C89BA"/>
<path d="M708.928 0.0424805C713.928 1.04248 715.856 16.0425 715.856 16.0425H702C702 16.0425 703.928 -0.95752 708.928 0.0424805Z" fill="#1C89BA"/>
<path d="M721.928 0.0424805C726.928 1.04248 728.856 16.0425 728.856 16.0425H715C715 16.0425 716.928 -0.95752 721.928 0.0424805Z" fill="#1C89BA"/>
<path d="M734.928 0.0424805C739.928 1.04248 741.856 16.0425 741.856 16.0425H728C728 16.0425 729.928 -0.95752 734.928 0.0424805Z" fill="#1C89BA"/>
<path d="M747.928 0.0424805C752.928 1.04248 754.856 16.0425 754.856 16.0425H741C741 16.0425 742.928 -0.95752 747.928 0.0424805Z" fill="#1C89BA"/>
<path d="M760.928 0.0424805C765.928 1.04248 767.856 16.0425 767.856 16.0425H754C754 16.0425 755.928 -0.95752 760.928 0.0424805Z" fill="#1C89BA"/>
<path d="M773.928 0.0424805C778.928 1.04248 780.856 16.0425 780.856 16.0425H767C767 16.0425 768.928 -0.95752 773.928 0.0424805Z" fill="#1C89BA"/>
<path d="M786.928 0.0424805C791.928 1.04248 793.856 16.0425 793.856 16.0425H780C780 16.0425 781.928 -0.95752 786.928 0.0424805Z" fill="#1C89BA"/>
<path d="M799.928 0.0424805C804.928 1.04248 806.856 16.0425 806.856 16.0425H793C793 16.0425 794.928 -0.95752 799.928 0.0424805Z" fill="#1C89BA"/>
<path d="M812.928 0.0424805C817.928 1.04248 819.856 16.0425 819.856 16.0425H806C806 16.0425 807.928 -0.95752 812.928 0.0424805Z" fill="#1C89BA"/>
<path d="M825.928 0.0424805C830.928 1.04248 832.856 16.0425 832.856 16.0425H819C819 16.0425 820.928 -0.95752 825.928 0.0424805Z" fill="#1C89BA"/>
<path d="M838.928 0.0424805C843.928 1.04248 845.856 16.0425 845.856 16.0425H832C832 16.0425 833.928 -0.95752 838.928 0.0424805Z" fill="#1C89BA"/>
<path d="M851.928 0.0424805C856.928 1.04248 858.856 16.0425 858.856 16.0425H845C845 16.0425 846.928 -0.95752 851.928 0.0424805Z" fill="#1C89BA"/>
<path d="M864.928 0.0424805C869.928 1.04248 871.856 16.0425 871.856 16.0425H858C858 16.0425 859.928 -0.95752 864.928 0.0424805Z" fill="#1C89BA"/>
<path d="M877.928 0.0424805C882.928 1.04248 884.856 16.0425 884.856 16.0425H871C871 16.0425 872.928 -0.95752 877.928 0.0424805Z" fill="#1C89BA"/>
<path d="M890.928 0.0424805C895.928 1.04248 897.856 16.0425 897.856 16.0425H884C884 16.0425 885.928 -0.95752 890.928 0.0424805Z" fill="#1C89BA"/>
<path d="M903.928 0.0424805C908.928 1.04248 910.856 16.0425 910.856 16.0425H897C897 16.0425 898.928 -0.95752 903.928 0.0424805Z" fill="#1C89BA"/>
<path d="M916.928 0.0424805C921.928 1.04248 923.856 16.0425 923.856 16.0425H910C910 16.0425 911.928 -0.95752 916.928 0.0424805Z" fill="#1C89BA"/>
<path d="M929.928 0.0424805C934.928 1.04248 936.856 16.0425 936.856 16.0425H923C923 16.0425 924.928 -0.95752 929.928 0.0424805Z" fill="#1C89BA"/>
<path d="M942.928 0.0424805C947.928 1.04248 949.856 16.0425 949.856 16.0425H936C936 16.0425 937.928 -0.95752 942.928 0.0424805Z" fill="#1C89BA"/>
<path d="M955.928 0.0424805C960.928 1.04248 962.856 16.0425 962.856 16.0425H949C949 16.0425 950.928 -0.95752 955.928 0.0424805Z" fill="#1C89BA"/>
<path d="M968.928 0.0424805C973.928 1.04248 975.856 16.0425 975.856 16.0425H962C962 16.0425 963.928 -0.95752 968.928 0.0424805Z" fill="#1C89BA"/>
<path d="M981.928 0.0424805C986.928 1.04248 988.856 16.0425 988.856 16.0425H975C975 16.0425 976.928 -0.95752 981.928 0.0424805Z" fill="#1C89BA"/>
<path d="M994.928 0.0424805C999.928 1.04248 1001.86 16.0425 1001.86 16.0425H988C988 16.0425 989.928 -0.95752 994.928 0.0424805Z" fill="#1C89BA"/>
<path d="M1007.93 0.0424805C1012.93 1.04248 1014.86 16.0425 1014.86 16.0425H1001C1001 16.0425 1002.93 -0.95752 1007.93 0.0424805Z" fill="#1C89BA"/>
<path d="M1020.93 0.0424805C1025.93 1.04248 1027.86 16.0425 1027.86 16.0425H1014C1014 16.0425 1015.93 -0.95752 1020.93 0.0424805Z" fill="#1C89BA"/>
<path d="M1033.93 0.0424805C1038.93 1.04248 1040.86 16.0425 1040.86 16.0425H1027C1027 16.0425 1028.93 -0.95752 1033.93 0.0424805Z" fill="#1C89BA"/>
<path d="M1046.93 0.0424805C1051.93 1.04248 1053.86 16.0425 1053.86 16.0425H1040C1040 16.0425 1041.93 -0.95752 1046.93 0.0424805Z" fill="#1C89BA"/>
<path d="M1059.93 0.0424805C1064.93 1.04248 1066.86 16.0425 1066.86 16.0425H1053C1053 16.0425 1054.93 -0.95752 1059.93 0.0424805Z" fill="#1C89BA"/>
<path d="M1072.93 0.0424805C1077.93 1.04248 1079.86 16.0425 1079.86 16.0425H1066C1066 16.0425 1067.93 -0.95752 1072.93 0.0424805Z" fill="#1C89BA"/>
<path d="M1085.93 0.0424805C1090.93 1.04248 1092.86 16.0425 1092.86 16.0425H1079C1079 16.0425 1080.93 -0.95752 1085.93 0.0424805Z" fill="#1C89BA"/>
<path d="M1098.93 0.0424805C1103.93 1.04248 1105.86 16.0425 1105.86 16.0425H1092C1092 16.0425 1093.93 -0.95752 1098.93 0.0424805Z" fill="#1C89BA"/>
<path d="M1111.93 0.0424805C1116.93 1.04248 1118.86 16.0425 1118.86 16.0425H1105C1105 16.0425 1106.93 -0.95752 1111.93 0.0424805Z" fill="#1C89BA"/>
<path d="M1124.93 0.0424805C1129.93 1.04248 1131.86 16.0425 1131.86 16.0425H1118C1118 16.0425 1119.93 -0.95752 1124.93 0.0424805Z" fill="#1C89BA"/>
<path d="M1137.93 0.0424805C1142.93 1.04248 1144.86 16.0425 1144.86 16.0425H1131C1131 16.0425 1132.93 -0.95752 1137.93 0.0424805Z" fill="#1C89BA"/>
<path d="M1150.93 0.0424805C1155.93 1.04248 1157.86 16.0425 1157.86 16.0425H1144C1144 16.0425 1145.93 -0.95752 1150.93 0.0424805Z" fill="#1C89BA"/>
<path d="M1163.93 0.0424805C1168.93 1.04248 1170.86 16.0425 1170.86 16.0425H1157C1157 16.0425 1158.93 -0.95752 1163.93 0.0424805Z" fill="#1C89BA"/>
<path d="M1176.93 0.0424805C1181.93 1.04248 1183.86 16.0425 1183.86 16.0425H1170C1170 16.0425 1171.93 -0.95752 1176.93 0.0424805Z" fill="#1C89BA"/>
<path d="M1189.93 0.0424805C1194.93 1.04248 1196.86 16.0425 1196.86 16.0425H1183C1183 16.0425 1184.93 -0.95752 1189.93 0.0424805Z" fill="#1C89BA"/>
<path d="M1202.93 0.0424805C1207.93 1.04248 1209.86 16.0425 1209.86 16.0425H1196C1196 16.0425 1197.93 -0.95752 1202.93 0.0424805Z" fill="#1C89BA"/>
<path d="M1215.93 0.0424805C1220.93 1.04248 1222.86 16.0425 1222.86 16.0425H1209C1209 16.0425 1210.93 -0.95752 1215.93 0.0424805Z" fill="#1C89BA"/>
<path d="M1228.93 0.0424805C1233.93 1.04248 1235.86 16.0425 1235.86 16.0425H1222C1222 16.0425 1223.93 -0.95752 1228.93 0.0424805Z" fill="#1C89BA"/>
<path d="M1241.93 0.0424805C1246.93 1.04248 1248.86 16.0425 1248.86 16.0425H1235C1235 16.0425 1236.93 -0.95752 1241.93 0.0424805Z" fill="#1C89BA"/>
<path d="M1254.93 0.0424805C1259.93 1.04248 1261.86 16.0425 1261.86 16.0425H1248C1248 16.0425 1249.93 -0.95752 1254.93 0.0424805Z" fill="#1C89BA"/>
<path d="M1267.93 0.0424805C1272.93 1.04248 1274.86 16.0425 1274.86 16.0425H1261C1261 16.0425 1262.93 -0.95752 1267.93 0.0424805Z" fill="#1C89BA"/>
<path d="M1280.93 0.0424805C1285.93 1.04248 1287.86 16.0425 1287.86 16.0425H1274C1274 16.0425 1275.93 -0.95752 1280.93 0.0424805Z" fill="#1C89BA"/>
<path d="M1293.93 0.0424805C1298.93 1.04248 1300.86 16.0425 1300.86 16.0425H1287C1287 16.0425 1288.93 -0.95752 1293.93 0.0424805Z" fill="#1C89BA"/>
<path d="M1306.93 0.0424805C1311.93 1.04248 1313.86 16.0425 1313.86 16.0425H1300C1300 16.0425 1301.93 -0.95752 1306.93 0.0424805Z" fill="#1C89BA"/>
<path d="M1319.93 0.0424805C1324.93 1.04248 1326.86 16.0425 1326.86 16.0425H1313C1313 16.0425 1314.93 -0.95752 1319.93 0.0424805Z" fill="#1C89BA"/>
<path d="M1332.93 0.0424805C1337.93 1.04248 1339.86 16.0425 1339.86 16.0425H1326C1326 16.0425 1327.93 -0.95752 1332.93 0.0424805Z" fill="#1C89BA"/>
<path d="M1345.93 0.0424805C1350.93 1.04248 1352.86 16.0425 1352.86 16.0425H1339C1339 16.0425 1340.93 -0.95752 1345.93 0.0424805Z" fill="#1C89BA"/>
<path d="M1358.93 0.0424805C1363.93 1.04248 1365.86 16.0425 1365.86 16.0425H1352C1352 16.0425 1353.93 -0.95752 1358.93 0.0424805Z" fill="#1C89BA"/>
<path d="M1371.93 0.0424805C1376.93 1.04248 1378.86 16.0425 1378.86 16.0425H1365C1365 16.0425 1366.93 -0.95752 1371.93 0.0424805Z" fill="#1C89BA"/>
<path d="M1384.93 0.0424805C1389.93 1.04248 1391.86 16.0425 1391.86 16.0425H1378C1378 16.0425 1379.93 -0.95752 1384.93 0.0424805Z" fill="#1C89BA"/>
<path d="M1397.93 0.0424805C1402.93 1.04248 1404.86 16.0425 1404.86 16.0425H1391C1391 16.0425 1392.93 -0.95752 1397.93 0.0424805Z" fill="#1C89BA"/>
<path d="M1410.93 0.0424805C1415.93 1.04248 1417.86 16.0425 1417.86 16.0425H1404C1404 16.0425 1405.93 -0.95752 1410.93 0.0424805Z" fill="#1C89BA"/>
<path d="M1423.93 0.0424805C1428.93 1.04248 1430.86 16.0425 1430.86 16.0425H1417C1417 16.0425 1418.93 -0.95752 1423.93 0.0424805Z" fill="#1C89BA"/>
<path d="M1436.93 0.0424805C1441.93 1.04248 1443.86 16.0425 1443.86 16.0425H1430C1430 16.0425 1431.93 -0.95752 1436.93 0.0424805Z" fill="#1C89BA"/>
<path d="M1449.93 0.0424805C1454.93 1.04248 1456.86 16.0425 1456.86 16.0425H1443C1443 16.0425 1444.93 -0.95752 1449.93 0.0424805Z" fill="#1C89BA"/>
<path d="M1462.93 0.0424805C1467.93 1.04248 1469.86 16.0425 1469.86 16.0425H1456C1456 16.0425 1457.93 -0.95752 1462.93 0.0424805Z" fill="#1C89BA"/>
<path d="M1475.93 0.0424805C1480.93 1.04248 1482.86 16.0425 1482.86 16.0425H1469C1469 16.0425 1470.93 -0.95752 1475.93 0.0424805Z" fill="#1C89BA"/>
<path d="M1488.93 0.0424805C1493.93 1.04248 1495.86 16.0425 1495.86 16.0425H1482C1482 16.0425 1483.93 -0.95752 1488.93 0.0424805Z" fill="#1C89BA"/>
<path d="M1501.93 0.0424805C1506.93 1.04248 1508.86 16.0425 1508.86 16.0425H1495C1495 16.0425 1496.93 -0.95752 1501.93 0.0424805Z" fill="#1C89BA"/>
<path d="M1514.93 0.0424805C1519.93 1.04248 1521.86 16.0425 1521.86 16.0425H1508C1508 16.0425 1509.93 -0.95752 1514.93 0.0424805Z" fill="#1C89BA"/>
<path d="M1527.93 0.0424805C1532.93 1.04248 1534.86 16.0425 1534.86 16.0425H1521C1521 16.0425 1522.93 -0.95752 1527.93 0.0424805Z" fill="#1C89BA"/>
<path d="M1540.93 0.0424805C1545.93 1.04248 1547.86 16.0425 1547.86 16.0425H1534C1534 16.0425 1535.93 -0.95752 1540.93 0.0424805Z" fill="#1C89BA"/>
<path d="M1553.93 0.0424805C1558.93 1.04248 1560.86 16.0425 1560.86 16.0425H1547C1547 16.0425 1548.93 -0.95752 1553.93 0.0424805Z" fill="#1C89BA"/>
<path d="M1566.93 0.0424805C1571.93 1.04248 1573.86 16.0425 1573.86 16.0425H1560C1560 16.0425 1561.93 -0.95752 1566.93 0.0424805Z" fill="#1C89BA"/>
<path d="M1579.93 0.0424805C1584.93 1.04248 1586.86 16.0425 1586.86 16.0425H1573C1573 16.0425 1574.93 -0.95752 1579.93 0.0424805Z" fill="#1C89BA"/>
<path d="M1592.93 0.0424805C1597.93 1.04248 1599.86 16.0425 1599.86 16.0425H1586C1586 16.0425 1587.93 -0.95752 1592.93 0.0424805Z" fill="#1C89BA"/>
<path d="M1605.93 0.0424805C1610.93 1.04248 1612.86 16.0425 1612.86 16.0425H1599C1599 16.0425 1600.93 -0.95752 1605.93 0.0424805Z" fill="#1C89BA"/>
<path d="M1618.93 0.0424805C1623.93 1.04248 1625.86 16.0425 1625.86 16.0425H1612C1612 16.0425 1613.93 -0.95752 1618.93 0.0424805Z" fill="#1C89BA"/>
<path d="M1631.93 0.0424805C1636.93 1.04248 1638.86 16.0425 1638.86 16.0425H1625C1625 16.0425 1626.93 -0.95752 1631.93 0.0424805Z" fill="#1C89BA"/>
<path d="M1644.93 0.0424805C1649.93 1.04248 1651.86 16.0425 1651.86 16.0425H1638C1638 16.0425 1639.93 -0.95752 1644.93 0.0424805Z" fill="#1C89BA"/>
<path d="M1657.93 0.0424805C1662.93 1.04248 1664.86 16.0425 1664.86 16.0425H1651C1651 16.0425 1652.93 -0.95752 1657.93 0.0424805Z" fill="#1C89BA"/>
<path d="M1670.93 0.0424805C1675.93 1.04248 1677.86 16.0425 1677.86 16.0425H1664C1664 16.0425 1665.93 -0.95752 1670.93 0.0424805Z" fill="#1C89BA"/>
<path d="M1683.93 0.0424805C1688.93 1.04248 1690.86 16.0425 1690.86 16.0425H1677C1677 16.0425 1678.93 -0.95752 1683.93 0.0424805Z" fill="#1C89BA"/>
<path d="M1696.93 0.0424805C1701.93 1.04248 1703.86 16.0425 1703.86 16.0425H1690C1690 16.0425 1691.93 -0.95752 1696.93 0.0424805Z" fill="#1C89BA"/>
<path d="M1709.93 0.0424805C1714.93 1.04248 1716.86 16.0425 1716.86 16.0425H1703C1703 16.0425 1704.93 -0.95752 1709.93 0.0424805Z" fill="#1C89BA"/>
<path d="M1722.93 0.0424805C1727.93 1.04248 1729.86 16.0425 1729.86 16.0425H1716C1716 16.0425 1717.93 -0.95752 1722.93 0.0424805Z" fill="#1C89BA"/>
<path d="M1735.93 0.0424805C1740.93 1.04248 1742.86 16.0425 1742.86 16.0425H1729C1729 16.0425 1730.93 -0.95752 1735.93 0.0424805Z" fill="#1C89BA"/>
<path d="M1748.93 0.0424805C1753.93 1.04248 1755.86 16.0425 1755.86 16.0425H1742C1742 16.0425 1743.93 -0.95752 1748.93 0.0424805Z" fill="#1C89BA"/>
<path d="M1761.93 0.0424805C1766.93 1.04248 1768.86 16.0425 1768.86 16.0425H1755C1755 16.0425 1756.93 -0.95752 1761.93 0.0424805Z" fill="#1C89BA"/>
<path d="M1774.93 0.0424805C1779.93 1.04248 1781.86 16.0425 1781.86 16.0425H1768C1768 16.0425 1769.93 -0.95752 1774.93 0.0424805Z" fill="#1C89BA"/>
<path d="M1787.93 0.0424805C1792.93 1.04248 1794.86 16.0425 1794.86 16.0425H1781C1781 16.0425 1782.93 -0.95752 1787.93 0.0424805Z" fill="#1C89BA"/>
<path d="M1800.93 0.0424805C1805.93 1.04248 1807.86 16.0425 1807.86 16.0425H1794C1794 16.0425 1795.93 -0.95752 1800.93 0.0424805Z" fill="#1C89BA"/>
<path d="M1813.93 0.0424805C1818.93 1.04248 1820.86 16.0425 1820.86 16.0425H1807C1807 16.0425 1808.93 -0.95752 1813.93 0.0424805Z" fill="#1C89BA"/>
<path d="M1826.93 0.0424805C1831.93 1.04248 1833.86 16.0425 1833.86 16.0425H1820C1820 16.0425 1821.93 -0.95752 1826.93 0.0424805Z" fill="#1C89BA"/>
<path d="M1839.93 0.0424805C1844.93 1.04248 1846.86 16.0425 1846.86 16.0425H1833C1833 16.0425 1834.93 -0.95752 1839.93 0.0424805Z" fill="#1C89BA"/>
<path d="M1852.93 0.0424805C1857.93 1.04248 1859.86 16.0425 1859.86 16.0425H1846C1846 16.0425 1847.93 -0.95752 1852.93 0.0424805Z" fill="#1C89BA"/>
<path d="M1865.93 0.0424805C1870.93 1.04248 1872.86 16.0425 1872.86 16.0425H1859C1859 16.0425 1860.93 -0.95752 1865.93 0.0424805Z" fill="#1C89BA"/>
<path d="M1878.93 0.0424805C1883.93 1.04248 1885.86 16.0425 1885.86 16.0425H1872C1872 16.0425 1873.93 -0.95752 1878.93 0.0424805Z" fill="#1C89BA"/>
<path d="M1891.93 0.0424805C1896.93 1.04248 1898.86 16.0425 1898.86 16.0425H1885C1885 16.0425 1886.93 -0.95752 1891.93 0.0424805Z" fill="#1C89BA"/>
<path d="M1904.93 0.0424805C1909.93 1.04248 1911.86 16.0425 1911.86 16.0425H1898C1898 16.0425 1899.93 -0.95752 1904.93 0.0424805Z" fill="#1C89BA"/>
<path d="M1917.93 0.0424805C1922.93 1.04248 1924.86 16.0425 1924.86 16.0425H1911C1911 16.0425 1912.93 -0.95752 1917.93 0.0424805Z" fill="#1C89BA"/>
<path d="M1930.93 0.0424805C1935.93 1.04248 1937.86 16.0425 1937.86 16.0425H1924C1924 16.0425 1925.93 -0.95752 1930.93 0.0424805Z" fill="#1C89BA"/>
<path d="M1943.93 0.0424805C1948.93 1.04248 1950.86 16.0425 1950.86 16.0425H1937C1937 16.0425 1938.93 -0.95752 1943.93 0.0424805Z" fill="#1C89BA"/>
<path d="M1956.93 0.0424805C1961.93 1.04248 1963.86 16.0425 1963.86 16.0425H1950C1950 16.0425 1951.93 -0.95752 1956.93 0.0424805Z" fill="#1C89BA"/>
<path d="M1969.93 0.0424805C1974.93 1.04248 1976.86 16.0425 1976.86 16.0425H1963C1963 16.0425 1964.93 -0.95752 1969.93 0.0424805Z" fill="#1C89BA"/>
<path d="M1982.93 0.0424805C1987.93 1.04248 1989.86 16.0425 1989.86 16.0425H1976C1976 16.0425 1977.93 -0.95752 1982.93 0.0424805Z" fill="#1C89BA"/>
<path d="M1995.93 0.0424805C2000.93 1.04248 2002.86 16.0425 2002.86 16.0425H1989C1989 16.0425 1990.93 -0.95752 1995.93 0.0424805Z" fill="#1C89BA"/>
<path d="M2008.93 0.0424805C2013.93 1.04248 2015.86 16.0425 2015.86 16.0425H2002C2002 16.0425 2003.93 -0.95752 2008.93 0.0424805Z" fill="#1C89BA"/>
<path d="M2021.93 0.0424805C2026.93 1.04248 2028.86 16.0425 2028.86 16.0425H2015C2015 16.0425 2016.93 -0.95752 2021.93 0.0424805Z" fill="#1C89BA"/>
<path d="M2034.93 0.0424805C2039.93 1.04248 2041.86 16.0425 2041.86 16.0425H2028C2028 16.0425 2029.93 -0.95752 2034.93 0.0424805Z" fill="#1C89BA"/>
<path d="M2047.93 0.0424805C2052.93 1.04248 2054.86 16.0425 2054.86 16.0425H2041C2041 16.0425 2042.93 -0.95752 2047.93 0.0424805Z" fill="#1C89BA"/>
<path d="M2060.93 0.0424805C2065.93 1.04248 2067.86 16.0425 2067.86 16.0425H2054C2054 16.0425 2055.93 -0.95752 2060.93 0.0424805Z" fill="#1C89BA"/>
<path d="M2073.93 0.0424805C2078.93 1.04248 2080.86 16.0425 2080.86 16.0425H2067C2067 16.0425 2068.93 -0.95752 2073.93 0.0424805Z" fill="#1C89BA"/>
</g>
<defs>
<clipPath id="clip0_3151_944">
<rect width="2084" height="16" fill="white"/>
</clipPath>
</defs>
</svg>
